<?xml version="1.0" encoding="UTF-8" standalone="no"?>
<!DOCTYPE svg PUBLIC "-//W3C//DTD SVG 1.1//EN"
 "http://www.w3.org/Graphics/SVG/1.1/DTD/svg11.dtd">
<!-- Generated by graphviz version 14.1.2 (20260124.0452)
 -->
<!-- Pages: 1 -->
<svg width="1445pt" height="210pt"
 viewBox="0.00 0.00 1445.00 210.00" xmlns="http://www.w3.org/2000/svg" xmlns:xlink="http://www.w3.org/1999/xlink">
<g id="graph0" class="graph" transform="scale(1 1) rotate(0) translate(4 206)">
<polygon fill="white" stroke="none" points="-4,4 -4,-206 1441,-206 1441,4 -4,4"/>
<!-- 4348560400 -->
<g id="node1" class="node">
<title>4348560400</title>
<polygon fill="none" stroke="black" points="3.75,-165.5 3.75,-201.5 194.25,-201.5 194.25,-165.5 3.75,-165.5"/>
<text xml:space="preserve" text-anchor="middle" x="18.5" y="-178.7" font-family="Times,serif" font-size="14.00">x2</text>
<polyline fill="none" stroke="black" points="33.25,-166 33.25,-201.5"/>
<text xml:space="preserve" text-anchor="middle" x="73.12" y="-178.7" font-family="Times,serif" font-size="14.00">data 0.0000</text>
<polyline fill="none" stroke="black" points="113,-166 113,-201.5"/>
<text xml:space="preserve" text-anchor="middle" x="153.62" y="-178.7" font-family="Times,serif" font-size="14.00">grad 0.5000</text>
</g>
<!-- 4343142592* -->
<g id="node8" class="node">
<title>4343142592*</title>
<ellipse fill="none" stroke="black" cx="261" cy="-128.5" rx="27" ry="18"/>
<text xml:space="preserve" text-anchor="middle" x="261" y="-123.45" font-family="Times,serif" font-size="14.00">*</text>
</g>
<!-- 4348560400&#45;&gt;4343142592* -->
<g id="edge11" class="edge">
<title>4348560400&#45;&gt;4343142592*</title>
<path fill="none" stroke="black" d="M172.12,-165.01C180.9,-162.35 189.7,-159.5 198,-156.5 208.09,-152.86 218.82,-148.27 228.47,-143.88"/>
<polygon fill="black" stroke="black" points="229.86,-147.09 237.45,-139.69 226.9,-140.75 229.86,-147.09"/>
</g>
<!-- 4348038224 -->
<g id="node2" class="node">
<title>4348038224</title>
<polygon fill="none" stroke="black" points="1253.25,-54.5 1253.25,-90.5 1437,-90.5 1437,-54.5 1253.25,-54.5"/>
<text xml:space="preserve" text-anchor="middle" x="1264.62" y="-67.7" font-family="Times,serif" font-size="14.00">o</text>
<polyline fill="none" stroke="black" points="1276,-55 1276,-90.5"/>
<text xml:space="preserve" text-anchor="middle" x="1315.88" y="-67.7" font-family="Times,serif" font-size="14.00">data 0.7071</text>
<polyline fill="none" stroke="black" points="1355.75,-55 1355.75,-90.5"/>
<text xml:space="preserve" text-anchor="middle" x="1396.38" y="-67.7" font-family="Times,serif" font-size="14.00">grad 1.0000</text>
</g>
<!-- 4348038224tanh -->
<g id="node3" class="node">
<title>4348038224tanh</title>
<ellipse fill="none" stroke="black" cx="1190.25" cy="-72.5" rx="27" ry="18"/>
<text xml:space="preserve" text-anchor="middle" x="1190.25" y="-67.45" font-family="Times,serif" font-size="14.00">tanh</text>
</g>
<!-- 4348038224tanh&#45;&gt;4348038224 -->
<g id="edge1" class="edge">
<title>4348038224tanh&#45;&gt;4348038224</title>
<path fill="none" stroke="black" d="M1217.53,-72.5C1224.67,-72.5 1232.86,-72.5 1241.57,-72.5"/>
<polygon fill="black" stroke="black" points="1241.31,-76 1251.31,-72.5 1241.31,-69 1241.31,-76"/>
</g>
<!-- 4348011632 -->
<g id="node4" class="node">
<title>4348011632</title>
<polygon fill="none" stroke="black" points="635.25,-82.5 635.25,-118.5 820.5,-118.5 820.5,-82.5 635.25,-82.5"/>
<text xml:space="preserve" text-anchor="middle" x="645.12" y="-95.7" font-family="Times,serif" font-size="14.00"> </text>
<polyline fill="none" stroke="black" points="655,-83 655,-118.5"/>
<text xml:space="preserve" text-anchor="middle" x="697.12" y="-95.7" font-family="Times,serif" font-size="14.00">data &#45;6.0000</text>
<polyline fill="none" stroke="black" points="739.25,-83 739.25,-118.5"/>
<text xml:space="preserve" text-anchor="middle" x="779.88" y="-95.7" font-family="Times,serif" font-size="14.00">grad 0.5000</text>
</g>
<!-- 4343016784+ -->
<g id="node14" class="node">
<title>4343016784+</title>
<ellipse fill="none" stroke="black" cx="883.5" cy="-72.5" rx="27" ry="18"/>
<text xml:space="preserve" text-anchor="middle" x="883.5" y="-67.45" font-family="Times,serif" font-size="14.00">+</text>
</g>
<!-- 4348011632&#45;&gt;4343016784+ -->
<g id="edge9" class="edge">
<title>4348011632&#45;&gt;4343016784+</title>
<path fill="none" stroke="black" d="M820.9,-83.73C829.64,-82.13 838.11,-80.59 845.83,-79.18"/>
<polygon fill="black" stroke="black" points="846.2,-82.67 855.41,-77.44 844.94,-75.79 846.2,-82.67"/>
</g>
<!-- 4348011632+ -->
<g id="node5" class="node">
<title>4348011632+</title>
<ellipse fill="none" stroke="black" cx="572.25" cy="-100.5" rx="27" ry="18"/>
<text xml:space="preserve" text-anchor="middle" x="572.25" y="-95.45" font-family="Times,serif" font-size="14.00">+</text>
</g>
<!-- 4348011632+&#45;&gt;4348011632 -->
<g id="edge2" class="edge">
<title>4348011632+&#45;&gt;4348011632</title>
<path fill="none" stroke="black" d="M599.66,-100.5C606.7,-100.5 614.75,-100.5 623.3,-100.5"/>
<polygon fill="black" stroke="black" points="623.29,-104 633.29,-100.5 623.29,-97 623.29,-104"/>
</g>
<!-- 4348561040 -->
<g id="node6" class="node">
<title>4348561040</title>
<polygon fill="none" stroke="black" points="0,-55.5 0,-91.5 198,-91.5 198,-55.5 0,-55.5"/>
<text xml:space="preserve" text-anchor="middle" x="16.25" y="-68.7" font-family="Times,serif" font-size="14.00">w1</text>
<polyline fill="none" stroke="black" points="32.5,-56 32.5,-91.5"/>
<text xml:space="preserve" text-anchor="middle" x="74.62" y="-68.7" font-family="Times,serif" font-size="14.00">data &#45;3.0000</text>
<polyline fill="none" stroke="black" points="116.75,-56 116.75,-91.5"/>
<text xml:space="preserve" text-anchor="middle" x="157.38" y="-68.7" font-family="Times,serif" font-size="14.00">grad 1.0000</text>
</g>
<!-- 4343207632* -->
<g id="node10" class="node">
<title>4343207632*</title>
<ellipse fill="none" stroke="black" cx="261" cy="-73.5" rx="27" ry="18"/>
<text xml:space="preserve" text-anchor="middle" x="261" y="-68.45" font-family="Times,serif" font-size="14.00">*</text>
</g>
<!-- 4348561040&#45;&gt;4343207632* -->
<g id="edge10" class="edge">
<title>4348561040&#45;&gt;4343207632*</title>
<path fill="none" stroke="black" d="M198.14,-73.5C206.61,-73.5 214.8,-73.5 222.29,-73.5"/>
<polygon fill="black" stroke="black" points="222.29,-77 232.29,-73.5 222.29,-70 222.29,-77"/>
</g>
<!-- 4343142592 -->
<g id="node7" class="node">
<title>4343142592</title>
<polygon fill="none" stroke="black" points="326.25,-110.5 326.25,-146.5 507,-146.5 507,-110.5 326.25,-110.5"/>
<text xml:space="preserve" text-anchor="middle" x="336.12" y="-123.7" font-family="Times,serif" font-size="14.00"> </text>
<polyline fill="none" stroke="black" points="346,-111 346,-146.5"/>
<text xml:space="preserve" text-anchor="middle" x="385.88" y="-123.7" font-family="Times,serif" font-size="14.00">data 0.0000</text>
<polyline fill="none" stroke="black" points="425.75,-111 425.75,-146.5"/>
<text xml:space="preserve" text-anchor="middle" x="466.38" y="-123.7" font-family="Times,serif" font-size="14.00">grad 0.5000</text>
</g>
<!-- 4343142592&#45;&gt;4348011632+ -->
<g id="edge6" class="edge">
<title>4343142592&#45;&gt;4348011632+</title>
<path fill="none" stroke="black" d="M507.43,-112.13C516.98,-110.39 526.26,-108.7 534.64,-107.17"/>
<polygon fill="black" stroke="black" points="535.14,-110.64 544.35,-105.4 533.89,-103.75 535.14,-110.64"/>
</g>
<!-- 4343142592*&#45;&gt;4343142592 -->
<g id="edge3" class="edge">
<title>4343142592*&#45;&gt;4343142592</title>
<path fill="none" stroke="black" d="M288.41,-128.5C296.12,-128.5 305.04,-128.5 314.51,-128.5"/>
<polygon fill="black" stroke="black" points="314.32,-132 324.32,-128.5 314.32,-125 314.32,-132"/>
</g>
<!-- 4343207632 -->
<g id="node9" class="node">
<title>4343207632</title>
<polygon fill="none" stroke="black" points="324,-55.5 324,-91.5 509.25,-91.5 509.25,-55.5 324,-55.5"/>
<text xml:space="preserve" text-anchor="middle" x="333.88" y="-68.7" font-family="Times,serif" font-size="14.00"> </text>
<polyline fill="none" stroke="black" points="343.75,-56 343.75,-91.5"/>
<text xml:space="preserve" text-anchor="middle" x="385.88" y="-68.7" font-family="Times,serif" font-size="14.00">data &#45;6.0000</text>
<polyline fill="none" stroke="black" points="428,-56 428,-91.5"/>
<text xml:space="preserve" text-anchor="middle" x="468.62" y="-68.7" font-family="Times,serif" font-size="14.00">grad 0.5000</text>
</g>
<!-- 4343207632&#45;&gt;4348011632+ -->
<g id="edge14" class="edge">
<title>4343207632&#45;&gt;4348011632+</title>
<path fill="none" stroke="black" d="M509.65,-89.67C518.39,-91.21 526.86,-92.7 534.58,-94.05"/>
<polygon fill="black" stroke="black" points="533.7,-97.45 544.16,-95.74 534.91,-90.56 533.7,-97.45"/>
</g>
<!-- 4343207632*&#45;&gt;4343207632 -->
<g id="edge4" class="edge">
<title>4343207632*&#45;&gt;4343207632</title>
<path fill="none" stroke="black" d="M288.41,-73.5C295.45,-73.5 303.5,-73.5 312.05,-73.5"/>
<polygon fill="black" stroke="black" points="312.04,-77 322.04,-73.5 312.04,-70 312.04,-77"/>
</g>
<!-- 4347559136 -->
<g id="node11" class="node">
<title>4347559136</title>
<polygon fill="none" stroke="black" points="636,-27.5 636,-63.5 819.75,-63.5 819.75,-27.5 636,-27.5"/>
<text xml:space="preserve" text-anchor="middle" x="647.38" y="-40.7" font-family="Times,serif" font-size="14.00">b</text>
<polyline fill="none" stroke="black" points="658.75,-28 658.75,-63.5"/>
<text xml:space="preserve" text-anchor="middle" x="698.62" y="-40.7" font-family="Times,serif" font-size="14.00">data 6.8814</text>
<polyline fill="none" stroke="black" points="738.5,-28 738.5,-63.5"/>
<text xml:space="preserve" text-anchor="middle" x="779.12" y="-40.7" font-family="Times,serif" font-size="14.00">grad 0.5000</text>
</g>
<!-- 4347559136&#45;&gt;4343016784+ -->
<g id="edge13" class="edge">
<title>4347559136&#45;&gt;4343016784+</title>
<path fill="none" stroke="black" d="M820.01,-61.52C829.13,-63.12 837.97,-64.67 845.99,-66.08"/>
<polygon fill="black" stroke="black" points="845.14,-69.49 855.6,-67.77 846.36,-62.59 845.14,-69.49"/>
</g>
<!-- 4347387184 -->
<g id="node12" class="node">
<title>4347387184</title>
<polygon fill="none" stroke="black" points="1.5,-0.5 1.5,-36.5 196.5,-36.5 196.5,-0.5 1.5,-0.5"/>
<text xml:space="preserve" text-anchor="middle" x="16.25" y="-13.7" font-family="Times,serif" font-size="14.00">x1</text>
<polyline fill="none" stroke="black" points="31,-1 31,-36.5"/>
<text xml:space="preserve" text-anchor="middle" x="70.88" y="-13.7" font-family="Times,serif" font-size="14.00">data 2.0000</text>
<polyline fill="none" stroke="black" points="110.75,-1 110.75,-36.5"/>
<text xml:space="preserve" text-anchor="middle" x="153.62" y="-13.7" font-family="Times,serif" font-size="14.00">grad &#45;1.5000</text>
</g>
<!-- 4347387184&#45;&gt;4343207632* -->
<g id="edge12" class="edge">
<title>4347387184&#45;&gt;4343207632*</title>
<path fill="none" stroke="black" d="M172.12,-36.99C180.9,-39.65 189.7,-42.5 198,-45.5 208.09,-49.14 218.82,-53.73 228.47,-58.12"/>
<polygon fill="black" stroke="black" points="226.9,-61.25 237.45,-62.31 229.86,-54.91 226.9,-61.25"/>
</g>
<!-- 4343016784 -->
<g id="node13" class="node">
<title>4343016784</title>
<polygon fill="none" stroke="black" points="946.5,-54.5 946.5,-90.5 1127.25,-90.5 1127.25,-54.5 946.5,-54.5"/>
<text xml:space="preserve" text-anchor="middle" x="956.38" y="-67.7" font-family="Times,serif" font-size="14.00"> </text>
<polyline fill="none" stroke="black" points="966.25,-55 966.25,-90.5"/>
<text xml:space="preserve" text-anchor="middle" x="1006.12" y="-67.7" font-family="Times,serif" font-size="14.00">data 0.8814</text>
<polyline fill="none" stroke="black" points="1046,-55 1046,-90.5"/>
<text xml:space="preserve" text-anchor="middle" x="1086.62" y="-67.7" font-family="Times,serif" font-size="14.00">grad 0.5000</text>
</g>
<!-- 4343016784&#45;&gt;4348038224tanh -->
<g id="edge8" class="edge">
<title>4343016784&#45;&gt;4348038224tanh</title>
<path fill="none" stroke="black" d="M1127.68,-72.5C1136.02,-72.5 1144.12,-72.5 1151.56,-72.5"/>
<polygon fill="black" stroke="black" points="1151.5,-76 1161.5,-72.5 1151.5,-69 1151.5,-76"/>
</g>
<!-- 4343016784+&#45;&gt;4343016784 -->
<g id="edge5" class="edge">
<title>4343016784+&#45;&gt;4343016784</title>
<path fill="none" stroke="black" d="M910.87,-72.5C918.01,-72.5 926.2,-72.5 934.89,-72.5"/>
<polygon fill="black" stroke="black" points="934.61,-76 944.61,-72.5 934.61,-69 934.61,-76"/>
</g>
<!-- 4347558832 -->
<g id="node15" class="node">
<title>4347558832</title>
<polygon fill="none" stroke="black" points="2.25,-110.5 2.25,-146.5 195.75,-146.5 195.75,-110.5 2.25,-110.5"/>
<text xml:space="preserve" text-anchor="middle" x="18.5" y="-123.7" font-family="Times,serif" font-size="14.00">w2</text>
<polyline fill="none" stroke="black" points="34.75,-111 34.75,-146.5"/>
<text xml:space="preserve" text-anchor="middle" x="74.62" y="-123.7" font-family="Times,serif" font-size="14.00">data 1.0000</text>
<polyline fill="none" stroke="black" points="114.5,-111 114.5,-146.5"/>
<text xml:space="preserve" text-anchor="middle" x="155.12" y="-123.7" font-family="Times,serif" font-size="14.00">grad 0.0000</text>
</g>
<!-- 4347558832&#45;&gt;4343142592* -->
<g id="edge7" class="edge">
<title>4347558832&#45;&gt;4343142592*</title>
<path fill="none" stroke="black" d="M195.84,-128.5C205.14,-128.5 214.15,-128.5 222.32,-128.5"/>
<polygon fill="black" stroke="black" points="222.13,-132 232.13,-128.5 222.13,-125 222.13,-132"/>
</g>
</g>
</svg>
